<svg width="575" height="113" xmlns="http://www.w3.org/2000/svg" xmlns:xlink="http://www.w3.org/1999/xlink" xml:space="preserve" overflow="hidden"><defs><clipPath id="clip0"><rect x="353" y="291" width="575" height="113"/></clipPath></defs><g clip-path="url(#clip0)" transform="translate(-353 -291)"><path d="M400.848 32.1604 378.47 7.33116 373.067 7.33116 373.067 64.6665C378.053 64.6665 383.036 64.6665 388.022 64.6665L388.022 39.1776 400.108 51.9203 401.743 51.9203 413.91 39.1776 413.91 64.6665C418.892 64.6665 423.878 64.6665 428.864 64.6665L428.864 7.33116 423.639 7.33116ZM470.509 40.6532 489.793 9.6818 489.793 7.49088 473.94 7.49088 463.568 26.5147 463.009 26.5147 452.621 7.49088 436.864 7.49088 436.864 9.6818 456.051 40.6532 456.051 64.6665 470.509 64.6665ZM534.799 64.6665 534.799 50.0488 545.327 50.0488C572.691 50.0488 572.691 7.57074 545.327 7.49088 536.914 7.49088 528.417 7.49088 520.181 7.49088 520.181 26.5946 520.181 45.6392 520.181 64.6665 524.987 64.6665 529.893 64.6665 534.799 64.6665ZM545.25 36.886 534.799 36.886C534.799 32.2368 534.799 25.2196 534.799 20.5531 538.15 20.5531 541.82 20.4732 545.25 20.5531 553.743 20.6329 553.247 36.886 545.25 36.886ZM631.984 36.1464C631.984-3.38038 573.333-3.38038 573.333 36.1464 573.333 75.7739 631.984 75.7739 631.984 36.1464ZM588.371 36.1464C588.371 15.5671 617.047 15.5671 617.047 36.1464 617.047 56.9063 588.371 56.9063 588.371 36.1464ZM657.956 64.6665 657.956 42.8476C659.831 42.8476 661.626 42.8476 663.602 42.5282L676.185 64.6665 692.438 64.6665 692.438 62.3715 676.903 37.2228C688.271 29.9452 687.931 19.1746 687.931 7.49088 682.865 7.49088 677.9 7.49088 672.914 7.49088 672.914 18.1781 673.653 29.1258 659.015 29.1258L657.956 29.1258 657.956 7.49088C652.893 7.49088 647.987 7.49088 643.099 7.49088L643.099 64.6665C647.987 64.6665 652.893 64.6665 657.956 64.6665ZM736.523 7.49088C723.142 7.49088 714.069 7.49088 700.847 7.49088 700.847 26.4349 700.847 45.5594 700.847 64.6665 714.069 64.6665 723.881 64.6665 737.263 64.6665 737.263 60.3368 737.263 55.9306 737.263 51.6808 728.687 51.6808 723.801 51.6808 715.385 51.6808 715.385 48.2538 715.385 44.983 715.385 41.6324L734.808 41.6324C734.808 37.3026 734.808 32.9764 734.808 28.6501L715.385 28.6501 715.385 20.5531C723.801 20.5531 728.048 20.5531 736.523 20.5531 736.523 16.1434 736.523 11.7373 736.523 7.49088ZM722.326 3.72014 730.739-5.83171 730.739-7.04695 718.315-11.217 712.114 2.42503 712.114 3.72014ZM786.185 64.6665 800.483 64.6665 800.483 62.552 774.679 6.75131 768.377 6.75131 742.652 62.552 742.652 64.6665 756.95 64.6665 760.3 57.4862 782.835 57.4862ZM778.109 44.983 765.026 44.983 771.488 29.9452ZM822.622 64.6665 822.622 50.0488 833.153 50.0488C860.513 50.0488 860.513 7.57074 833.153 7.49088 824.736 7.49088 816.24 7.49088 808.004 7.49088 808.004 26.5946 808.004 45.6392 808.004 64.6665 812.81 64.6665 817.716 64.6665 822.622 64.6665ZM833.073 36.886 822.622 36.886C822.622 32.2368 822.622 25.2196 822.622 20.5531 825.972 20.5531 829.643 20.4732 833.073 20.5531 841.566 20.6329 841.069 36.886 833.073 36.886ZM879.304 64.6665 879.304 50.0488 889.835 50.0488C917.196 50.0488 917.196 7.57074 889.835 7.49088 881.419 7.49088 872.923 7.49088 864.687 7.49088 864.687 26.5946 864.687 45.6392 864.687 64.6665 869.492 64.6665 874.398 64.6665 879.304 64.6665ZM889.756 36.886 879.304 36.886C879.304 32.2368 879.304 25.2196 879.304 20.5531 882.655 20.5531 886.325 20.4732 889.756 20.5531 898.248 20.6329 897.752 36.886 889.756 36.886Z" stroke="#000000" stroke-width="3.5" fill="#00000015" transform="matrix(1 0 0 1.00312 0.356037 315.501)"/></g></svg>